<?xml version="1.0" standalone="no"?>
<!DOCTYPE svg PUBLIC "-//W3C//DTD SVG 20010904//EN"
 "http://www.w3.org/TR/2001/REC-SVG-20010904/DTD/svg10.dtd">
<svg version="1.0" xmlns="http://www.w3.org/2000/svg"
 width="110.000000pt" height="123.000000pt" viewBox="0 0 110.000000 123.000000"
 preserveAspectRatio="xMidYMid meet">

<g transform="translate(0.000000,123.000000) scale(0.100000,-0.100000)"
fill="#000000" stroke="none">
<path d="M676 1068 c-3 -13 -6 -60 -6 -105 l0 -83 -133 0 c-79 0 -137 4 -143
10 -8 8 -14 6 -23 -4 -9 -11 -8 -17 4 -30 14 -13 42 -16 160 -16 183 0 177 -5
173 138 -2 67 -7 107 -14 109 -6 2 -14 -6 -18 -19z"/>
<path d="M740 947 c0 -143 8 -137 -207 -137 -210 0 -203 -4 -203 128 0 51 -2
92 -5 92 -24 0 -101 -54 -155 -109 -69 -70 -118 -157 -140 -246 -15 -64 -15
-186 0 -250 45 -184 199 -341 385 -392 64 -17 206 -17 270 0 186 51 340 208
385 392 15 64 15 186 0 250 -34 139 -145 282 -267 344 l-63 31 0 -103z"/>
<path d="M521 981 c-17 -16 -31 -33 -31 -38 0 -5 20 -10 45 -10 38 0 44 3 40
17 -3 10 1 23 10 30 22 18 18 30 -9 30 -13 0 -38 -13 -55 -29z"/>
<path d="M440 946 c0 -31 6 -34 13 -6 3 11 1 23 -4 26 -5 3 -9 -6 -9 -20z"/>
<path d="M617 963 c-3 -5 -1 -17 4 -28 7 -17 8 -17 8 8 1 27 -4 34 -12 20z"/>
</g>
</svg>
