<?xml version="1.0" standalone="no"?>
<!DOCTYPE svg PUBLIC "-//W3C//DTD SVG 20010904//EN"
 "http://www.w3.org/TR/2001/REC-SVG-20010904/DTD/svg10.dtd">
<svg version="1.0" xmlns="http://www.w3.org/2000/svg"
 width="110.000000pt" height="133.000000pt" viewBox="0 0 110.000000 133.000000"
 preserveAspectRatio="xMidYMid meet">

<g transform="translate(0.000000,133.000000) scale(0.100000,-0.100000)"
fill="#000000" stroke="none">
<path d="M599 1088 c-15 -10 -13 -14 14 -27 18 -9 42 -32 55 -51 59 -87 -25
-206 -132 -186 -57 11 -114 92 -101 144 5 21 4 22 -15 12 -40 -21 -15 -121 41
-162 91 -67 229 -20 258 88 18 69 -14 150 -70 180 -32 16 -29 16 -50 2z"/>
<path d="M295 1018 c-120 -62 -230 -205 -264 -343 -16 -64 -16 -186 0 -250 46
-187 207 -348 394 -394 64 -16 186 -16 250 0 187 46 348 207 394 394 16 64 16
186 0 250 -34 140 -145 282 -268 345 -53 26 -62 28 -56 13 13 -28 18 -100 10
-139 -7 -42 -67 -112 -112 -131 -42 -17 -125 -17 -166 1 -41 17 -91 74 -107
121 -12 37 -10 113 5 148 10 25 -10 21 -80 -15z"/>
<path d="M515 1028 c-32 -18 -44 -40 -45 -80 0 -85 97 -126 157 -65 39 38 39
100 0 133 -31 26 -78 31 -112 12z m53 -51 c2 -19 9 -27 23 -27 11 0 19 -7 19
-16 0 -12 -9 -14 -37 -12 -33 3 -38 7 -41 31 -2 16 -1 35 2 44 9 23 31 10 34
-20z"/>
</g>
</svg>
