<?xml version="1.0" standalone="no"?>
<!DOCTYPE svg PUBLIC "-//W3C//DTD SVG 20010904//EN"
 "http://www.w3.org/TR/2001/REC-SVG-20010904/DTD/svg10.dtd">
<svg version="1.0" xmlns="http://www.w3.org/2000/svg"
 width="110.000000pt" height="120.000000pt" viewBox="0 0 110.000000 120.000000"
 preserveAspectRatio="xMidYMid meet">

<g transform="translate(0.000000,120.000000) scale(0.100000,-0.100000)"
fill="#000000" stroke="none">
<path d="M676 1072 c-3 -5 3 -17 14 -27 11 -10 20 -22 20 -27 0 -11 -97 -10
-105 2 -3 5 -31 -7 -63 -27 -31 -19 -67 -42 -79 -49 -19 -12 -21 -17 -11 -33
9 -15 9 -23 -1 -35 -19 -22 -52 -20 -58 4 -3 11 -9 17 -14 14 -16 -10 -9 -33
15 -49 30 -20 72 -6 86 30 8 21 16 25 54 25 34 0 45 -4 49 -19 7 -27 48 -51
75 -44 13 3 29 18 38 34 9 19 22 29 36 29 17 0 19 3 10 12 -7 7 -12 37 -12 68
0 47 -4 60 -24 79 -13 12 -27 18 -30 13z m-12 -158 c22 -21 3 -56 -27 -52 -25
3 -34 32 -17 53 16 19 25 19 44 -1z"/>
<path d="M772 954 c3 -66 0 -78 -16 -88 -10 -6 -31 -23 -46 -38 -41 -40 -101
-39 -140 2 -15 17 -33 30 -38 30 -6 0 -24 -13 -40 -30 -23 -23 -40 -30 -69
-30 -32 0 -45 7 -81 44 -41 42 -42 45 -42 110 l0 67 -32 -17 c-57 -29 -160
-144 -194 -214 -41 -85 -56 -148 -56 -240 0 -151 49 -268 157 -375 109 -109
222 -156 375 -156 153 0 266 47 375 156 108 107 157 224 157 375 0 147 -49
267 -152 371 -55 56 -131 109 -156 109 -3 0 -4 -34 -2 -76z"/>
</g>
</svg>
