<?xml version="1.0" standalone="no"?>
<!DOCTYPE svg PUBLIC "-//W3C//DTD SVG 20010904//EN"
 "http://www.w3.org/TR/2001/REC-SVG-20010904/DTD/svg10.dtd">
<svg version="1.0" xmlns="http://www.w3.org/2000/svg"
 width="110.000000pt" height="133.000000pt" viewBox="0 0 110.000000 133.000000"
 preserveAspectRatio="xMidYMid meet">

<g transform="translate(0.000000,133.000000) scale(0.100000,-0.100000)"
fill="#000000" stroke="none">
<path d="M696 1098 c-3 -7 -7 -26 -11 -43 -15 -71 -99 -116 -176 -95 -34 10
-44 9 -57 -3 -8 -9 -12 -23 -8 -32 6 -18 7 -18 99 2 16 3 39 0 51 -7 37 -19
58 -9 70 35 9 31 20 44 51 60 48 26 53 40 24 71 -25 27 -38 30 -43 12z"/>
<path d="M622 1063 c-17 -8 -32 -20 -32 -25 0 -5 -4 -7 -9 -4 -5 3 -14 -1 -21
-9 -7 -8 -19 -15 -26 -15 -8 0 -14 -4 -14 -10 0 -18 67 -11 94 11 26 20 51 57
44 64 -2 2 -18 -3 -36 -12z"/>
<path d="M255 996 c-243 -163 -312 -491 -156 -735 39 -60 121 -138 181 -173
125 -73 295 -92 431 -49 119 38 239 134 301 241 95 164 95 376 0 540 -34 60
-106 135 -167 176 -49 33 -50 34 -65 15 -8 -11 -27 -25 -43 -30 -40 -15 -42
-33 -12 -96 15 -32 23 -64 20 -75 -7 -21 -39 -35 -56 -25 -6 4 -17 -2 -25 -14
-9 -12 -26 -21 -40 -21 -19 0 -29 10 -46 45 -12 25 -25 45 -28 45 -3 0 -14
-19 -25 -42 -24 -51 -65 -65 -85 -29 -8 16 -17 20 -34 15 -31 -7 -59 20 -50
50 4 11 15 38 25 58 27 53 24 76 -8 89 -16 6 -37 19 -48 29 -21 19 -21 19 -70
-14z"/>
<path d="M585 871 c8 -17 20 -43 26 -57 l10 -27 23 22 c17 16 31 21 45 16 25
-8 26 -3 6 35 -14 26 -17 28 -44 17 -24 -9 -34 -7 -56 7 l-26 17 16 -30z"/>
<path d="M409 863 c-5 -14 -12 -30 -15 -35 -3 -5 5 -6 19 -3 18 5 30 1 45 -15
l21 -22 25 51 26 51 -26 -12 c-19 -9 -33 -9 -55 -1 -28 11 -31 10 -40 -14z"/>
</g>
</svg>
